<?xml version="1.0" standalone="no"?>
<!DOCTYPE svg PUBLIC "-//W3C//DTD SVG 20010904//EN"
 "http://www.w3.org/TR/2001/REC-SVG-20010904/DTD/svg10.dtd">
<svg version="1.0" xmlns="http://www.w3.org/2000/svg"
 width="348.000000pt" height="350.000000pt" viewBox="0 0 348.000000 350.000000"
 preserveAspectRatio="xMidYMid meet">
<metadata>
Created by potrace 1.16, written by Peter Selinger 2001-2019
</metadata>
<g transform="translate(0.000000,350.000000) scale(0.100000,-0.100000)"
fill="#000000" stroke="none">
<path d="M2220 3489 c-410 -3 -1077 -7 -1482 -8 l-738 -1 0 -1740 0 -1740
1740 0 1740 0 0 1750 0 1750 -257 -2 c-142 -1 -593 -5 -1003 -9z m1150 -1729
l0 -1610 -1629 0 c-1476 0 -1629 1 -1635 16 -8 22 -8 3189 1 3197 3 4 739 7
1635 7 l1628 0 0 -1610z"/>
<path d="M1610 2544 c-74 -97 -158 -206 -187 -243 -29 -36 -51 -67 -49 -68 2
-2 49 24 105 57 56 33 103 60 105 60 2 0 34 18 70 40 36 22 71 40 77 40 6 0
43 -26 83 -57 40 -32 99 -79 132 -104 32 -25 124 -97 203 -158 155 -121 189
-143 156 -99 -11 14 -68 89 -127 166 l-108 141 0 160 0 161 -60 0 -60 0 0 -64
c0 -36 -4 -67 -9 -70 -5 -4 -47 42 -93 101 -45 58 -88 108 -93 110 -6 2 -71
-76 -145 -173z"/>
<path d="M1186 2228 c4 -7 44 -60 89 -118 152 -196 320 -415 394 -512 41 -54
75 -98 77 -98 2 0 57 71 123 158 65 86 151 197 189 247 39 49 69 91 68 93 -2
1 -55 -28 -117 -66 -63 -37 -143 -84 -179 -104 l-65 -36 -285 224 c-157 123
-289 223 -293 224 -5 0 -5 -6 -1 -12z"/>
<path d="M927 1302 c-14 -15 -17 -40 -17 -123 0 -57 4 -109 8 -115 13 -20 54
-36 77 -30 48 12 55 30 55 142 0 91 -3 107 -20 124 -26 26 -81 26 -103 2z m88
-127 l0 -110 -35 0 -35 0 -3 99 c-1 55 0 106 3 113 3 9 17 13 37 11 l33 -3 0
-110z"/>
<path d="M1170 1306 c-6 -8 -18 -12 -26 -9 -12 5 -14 -14 -12 -123 4 -161 22
-174 26 -20 1 63 8 116 14 123 6 8 23 13 37 11 l26 -3 3 -123 c2 -92 6 -122
15 -119 8 2 14 42 17 123 l5 119 32 3 32 3 3 -122 c2 -87 7 -124 16 -127 9 -3
12 26 12 121 0 107 -2 126 -18 140 -22 20 -53 22 -70 5 -9 -9 -18 -9 -37 0
-35 16 -60 15 -75 -2z"/>
<path d="M1467 1302 c-14 -15 -17 -40 -17 -129 0 -124 6 -137 65 -137 41 0 65
19 65 50 0 30 -12 31 -25 2 -7 -17 -18 -23 -40 -23 -29 0 -30 2 -33 53 l-3 52
50 0 51 0 0 58 c0 44 -5 63 -18 75 -25 22 -75 21 -95 -1z"/>
<path d="M1771 1294 c-30 -38 -31 -200 -2 -235 26 -33 86 -32 113 1 17 21 19
37 16 127 -3 88 -6 104 -23 117 -33 25 -80 20 -104 -10z m93 -20 c8 -20 8
-178 0 -198 -7 -19 -55 -21 -72 -4 -13 13 -17 199 -5 211 13 14 71 7 77 -9z"/>
<path d="M2530 1300 c-17 -17 -20 -33 -20 -124 0 -110 6 -127 51 -141 43 -14
103 35 83 67 -10 15 -23 8 -26 -14 -2 -19 -9 -23 -38 -23 l-35 0 -3 53 -3 52
55 0 56 0 0 55 c0 65 -22 95 -70 95 -17 0 -39 -9 -50 -20z"/>
<path d="M692 1181 c3 -137 21 -186 26 -73 l3 62 39 0 39 0 3 -62 c2 -35 8
-63 13 -63 6 0 11 53 13 133 2 113 0 132 -13 132 -12 0 -15 -13 -15 -60 l0
-60 -40 0 -39 0 -3 57 c-2 35 -8 58 -16 61 -10 3 -12 -24 -10 -127z"/>
<path d="M1976 1303 c-8 -8 -8 -200 0 -230 9 -31 56 -49 92 -34 22 9 35 9 54
0 37 -16 79 6 90 49 13 49 6 214 -9 220 -10 3 -13 -24 -13 -111 0 -124 -7
-142 -52 -135 -22 3 -23 7 -28 122 -3 83 -9 121 -17 124 -10 3 -13 -23 -13
-106 0 -61 -3 -117 -6 -126 -8 -21 -60 -21 -68 0 -3 9 -6 62 -6 119 0 95 -7
125 -24 108z"/>
</g>
</svg>
