<svg id="Layer_5" enable-background="new 0 0 64 64" height="512" viewBox="0 0 64 64" width="512" xmlns="http://www.w3.org/2000/svg"><path d="m53.14 21h-21.14-21.14l-1.86 1.11v39.89h46v-39.89z" fill="#e6e9ed"/><path d="m30 51.67-1 10.33h-12v-3c0-4.14 1.68-7.89 4.4-10.6 1.09-1.1 2.36-2.03 3.75-2.74v.01l.85 9.33z" fill="#b4dd7f"/><path d="m47 59v3h-12l-1-10.33 4 3.33.85-9.33v-.01c4.84 2.48 8.15 7.53 8.15 13.34z" fill="#b4dd7f"/><path d="m34 51.67 1 10.33h-6l1-10.33 2-1.67z" fill="#ff826e"/><path d="m38.85 45.66v.01l-.85 9.33-4-3.33-2-1.67 4.54-5.3c.8.26 1.57.58 2.31.96z" fill="#a0d468"/><path d="m27.46 44.7 4.54 5.3-2 1.67-4 3.33-.85-9.33v-.01c.74-.38 1.51-.7 2.31-.96z" fill="#a0d468"/><path d="m36.54 44.7-4.54 5.3-4.54-5.3c1.43-.45 2.96-.7 4.54-.7s3.11.25 4.54.7z" fill="#f0d0b4"/><path d="m36.07 36h2.85c.06.32.08.66.08 1 0 3.87-3.13 7-7 7s-7-3.13-7-7c0-.34.02-.68.08-1h1.09c1.81 0 3.55-.72 4.83-2l1.28.85c1.12.75 2.44 1.15 3.79 1.15z" fill="#f0d0b4"/><path d="m38.92 36h-2.85c-1.35 0-2.67-.4-3.79-1.15l-1.28-.85c-1.28 1.28-3.02 2-4.83 2h-1.09c.48-3.4 3.39-6 6.92-6s6.44 2.6 6.92 6z" fill="#656d78"/><path d="m13 25h8v10h-8z" fill="#69d6f4"/><path d="m43 25h8v10h-8z" fill="#69d6f4"/><path d="m56 5v10.72l-6-3.58v-7.14z" fill="#838f9b"/><path d="m33.86 9.51c-.56-.33-1.2-.51-1.86-.51-.65 0-1.3.18-1.86.51l-19.28 11.49h21.14 21.14z" fill="#b4dd7f"/><circle cx="32" cy="17" fill="#e6e9ed" r="4"/><path d="m60.53 18.42c1.42.84 1.89 2.69 1.05 4.11-.54.91-1.53 1.47-2.58 1.47-.54 0-1.07-.15-1.53-.42l-2.47-1.47-1.86-1.11-19.28-11.49c-.56-.33-1.2-.51-1.86-.51-.65 0-1.3.18-1.86.51l-19.28 11.49-1.86 1.11-2.47 1.47c-.46.27-.99.42-1.53.42-1.05 0-2.04-.56-2.58-1.47-.84-1.42-.37-3.27 1.05-4.11l26.67-15.91c.56-.33 1.21-.51 1.86-.51.66 0 1.3.18 1.86.51l16.14 9.63 6 3.58z" fill="#fcd770"/><path d="m56 61v-37.132l.961.573c.617.366 1.322.559 2.039.559 1.406 0 2.725-.751 3.441-1.96.544-.918.698-1.994.434-3.03-.265-1.037-.916-1.907-1.832-2.45l-4.042-2.411v-11.149h-8v6.378l-14.63-8.725c-1.434-.855-3.311-.854-4.742 0l-26.668 15.906c-.919.544-1.57 1.415-1.835 2.451-.266 1.036-.111 2.112.433 3.03.717 1.209 2.037 1.96 3.442 1.96.717 0 1.422-.193 2.041-.561l.958-.57v37.131h-7v2h62v-2zm-4.999-55h4v7.957l-4-2.386zm-44.98 16.72c-.914.542-2.2.212-2.741-.701-.272-.458-.349-.996-.216-1.514s.458-.954.92-1.228l26.67-15.907c.813-.485 1.88-.486 2.693 0l26.674 15.908c.459.272.784.707.917 1.226.132.519.056 1.057-.217 1.515-.54.913-1.83 1.241-2.738.702l-23.612-14.069c-.717-.426-1.536-.652-2.37-.652s-1.654.226-2.371.653zm22.979-5.72c0-1.654 1.346-3 3-3s3 1.346 3 3-1.346 3-3 3-3-1.346-3-3zm3-5c-2.757 0-5 2.243-5 5 0 1.13.391 2.162 1.026 3h-13.533l16.16-9.629c.813-.485 1.879-.485 2.694 0l16.161 9.629h-13.534c.635-.838 1.026-1.87 1.026-3 0-2.757-2.243-5-5-5zm-22 10.677 1.136-.677h41.728l1.136.677v38.323h-6v-2c0-7.276-4.887-13.423-11.549-15.357 2.139-1.438 3.549-3.878 3.549-6.643 0-4.411-3.589-8-8-8s-8 3.589-8 8c0 2.765 1.41 5.205 3.549 6.643-6.662 1.934-11.549 8.081-11.549 15.357v2h-6zm16 14.323h.172c1.812 0 3.531-.612 4.919-1.737l.634.422c1.29.86 2.792 1.315 4.343 1.315h1.932c0 3.309-2.691 6-6 6s-6-2.691-6-6zm.353-2.009c.829-2.322 3.044-3.991 5.647-3.991 2.607 0 4.824 1.673 5.65 4h-1.583c-1.154 0-2.272-.338-3.233-.979l-1.962-1.308-.579.58c-1.058 1.057-2.452 1.653-3.94 1.698zm7.066 14.89 3.427-3.998c.32.119.635.245.943.386l-.613 6.744zm1.317-4.609-2.736 3.192-2.736-3.192c.886-.176 1.8-.272 2.736-.272s1.85.096 2.736.272zm-7.582.611 3.427 3.998-3.758 3.131-.613-6.744c.309-.14.624-.267.944-.385zm-2.856 1.438.879 9.666 3.594-2.995-.679 7.008h-10.092v-2c0-4.875 2.508-9.171 6.298-11.679zm6.658 4.851 1.044-.87 1.044.87.855 8.828h-3.798zm4.274 1.821 3.594 2.995.879-9.666c3.789 2.507 6.297 6.803 6.297 11.678v2h-10.092z"/><path d="m22 24h-10v12h10zm-2 10h-6v-8h6z"/><path d="m52 24h-10v12h10zm-2 10h-6v-8h6z"/><path d="m50 53h2v2h-2z"/><path d="m50 49h2v2h-2z"/><path d="m50 57h2v2h-2z"/><path d="m12 46h2v2h-2z"/><path d="m12 38h2v2h-2z"/><path d="m12 42h2v2h-2z"/></svg>