<svg height="512pt" viewBox="0 -46 512 512" width="512pt" xmlns="http://www.w3.org/2000/svg"><path d="m437.820312 150.105469c0 7.503906-1.089843 14.757812-3.125 21.609375-9.296874 31.402344-38.375 54.308594-72.800781 54.308594-41.933593 0-75.917969-33.988282-75.917969-75.917969 0-32.695313 20.671876-60.570313 49.644532-71.25 8.1875-3.027344 17.035156-4.667969 26.273437-4.667969 41.929688 0 75.925781 33.984375 75.925781 75.917969zm0 0" fill="#ffb52d"/><path d="m437.820312 150.105469c0 7.503906-1.089843 14.757812-3.125 21.609375-8.1875 3.027344-17.042968 4.679687-26.28125 4.679687-41.921874 0-75.917968-33.996093-75.917968-75.917969 0-7.515624 1.09375-14.769531 3.125-21.621093 8.1875-3.027344 17.035156-4.667969 26.273437-4.667969 41.929688 0 75.925781 33.984375 75.925781 75.917969zm0 0" fill="#ffc14f"/><path d="m503.554688 318.269531c-.410157 11.230469-9.988282 19.960938-21.222657 19.960938h-261.382812c-16.332031 0-45.738281-18.335938-45.738281-50.917969 0-40.695312 44.753906-63.742188 77.585937-43.398438 1.730469 1.074219 4.023437.089844 4.402344-1.914062 6.070312-32.183594 34.328125-56.527344 68.285156-56.527344 8.925781 0 17.460937 1.683594 25.296875 4.75 10.171875 3.976563 19.179688 10.289063 26.363281 18.265625 6.820313 7.574219 12.003907 16.671875 14.976563 26.707031.429687 1.453126 1.910156 2.316407 3.394531 2.015626 32.808594-6.65625 59.730469 25.136718 49.777344 55.707031-.617188 1.894531.789062 3.839843 2.78125 3.839843h34.765625c11.710937 0 21.148437 9.714844 20.714844 21.511719zm0 0" fill="#5596fb"/><path d="m361.894531 222.085938c0 8.363281-1.933593 15.789062-5.101562 22.203124-9.136719 18.585938-28.496094 28.714844-40.636719 28.714844h-68.578125c-7.308594 0-12.269531 7.261719-9.804687 14.140625.03125.089844.066406.179688.097656.273438 1.980468 5.613281 8.097656 8.464843 13.683594 6.40625 26.441406-9.75 57.636718 9.117187 57.636718 40.289062 0 1.402344-.070312 2.773438-.199218 4.117188h-88.042969c-16.332031 0-45.738281-18.335938-45.738281-50.917969 0-42.253906 48.246093-65.480469 81.300781-40.871094 4.195312-34.355468 33.472656-60.96875 68.972656-60.96875 8.925781 0 17.464844 1.683594 25.300781 4.75 6.851563 8.4375 11.109375 19.308594 11.109375 31.863282zm0 0" fill="#2476ed"/><path d="m335.875 196.765625c0 8.367187-1.933594 15.789063-5.101562 22.203125-9.136719 18.585938-28.496094 28.714844-40.640626 28.714844h-261.378906c-11.238281 0-20.8125-8.730469-21.226562-19.960938-.429688-11.796875 9.003906-21.507812 20.71875-21.507812h34.761718c1.996094 0 3.398438-1.949219 2.78125-3.84375-9.949218-30.566406 16.96875-62.363282 49.777344-55.707032 1.492188.304688 2.96875-.566406 3.402344-2.027343 8.515625-28.734375 35.132812-49.710938 66.632812-49.710938 8.796876 0 17.214844 1.632813 24.960938 4.621094 21.902344 8.429687 38.464844 27.644531 43.175781 51.132813.472657 2.375 3.144531 3.523437 5.222657 2.277343 32.765624-19.617187 76.914062 3.390625 76.914062 43.808594zm0 0" fill="#97bffd"/><path d="m335.875 196.765625c0 8.367187-1.933594 15.789063-5.101562 22.203125h-217.714844c-11.238282 0-20.8125-8.730469-21.226563-19.960938-.433593-11.796874 9.003907-21.511718 20.71875-21.511718h34.765625c1.992188 0 3.394532-1.945313 2.777344-3.839844-9.941406-30.566406 16.96875-62.363281 49.777344-55.699219 1.488281.304688 2.96875-.5625 3.398437-2.015625 1.722657-5.824218 4.1875-11.324218 7.292969-16.394531 21.902344 8.429687 38.464844 27.644531 43.175781 51.132813.472657 2.375 3.144531 3.523437 5.222657 2.277343 32.765624-19.617187 76.914062 3.390625 76.914062 43.808594zm0 0" fill="#b9d3fd"/><path d="m291.15625 368.878906c0 10.039063-3.316406 18.464844-8.195312 25.121094-8.445313 11.539062-21.59375 17.742188-30.308594 17.742188h-183.210938c-8.972656 0-16.683594-6.859376-17.191406-15.8125-.425781-7.523438 4.097656-14.054688 10.621094-16.621094 1.5-.589844 2.160156-2.3125 1.578125-3.816406-10.117188-26.167969 12.71875-54.273438 40.851562-48.867188 1.476563.285156 2.929688-.570312 3.367188-2.007812 7.289062-24.003907 29.597656-41.472657 55.980469-41.472657 6.753906 0 13.226562 1.140625 19.257812 3.246094 20.679688 7.203125 36.070312 25.6875 38.804688 48.082031 27.828124-20.710937 68.445312-1.164062 68.445312 34.40625zm0 0" fill="#97bffd"/><path d="m291.15625 368.878906c0 10.039063-3.316406 18.464844-8.195312 25.121094h-149.347657c-8.96875 0-16.6875-6.851562-17.207031-15.800781-.4375-7.523438 4.089844-14.0625 10.613281-16.632813 1.5-.589844 2.15625-2.3125 1.578125-3.816406-10.109375-26.175781 12.722656-54.273438 40.847656-48.867188 1.476563.28125 2.929688-.574218 3.367188-2.011718 2.308594-7.597656 6.121094-14.542969 11.09375-20.480469 19.316406 6.726563 34.015625 23.296875 38.101562 43.699219.398438 1.996094 2.648438 2.957031 4.394532 1.910156 27.585937-16.511719 64.753906 2.855469 64.753906 36.878906zm0 0" fill="#b9d3fd"/><path d="m482.839844 289.246094h-28.847656c6.351562-32.375-20.992188-64.257813-55.929688-60.058594-.398438-1.121094-.808594-2.222656-1.261719-3.316406 28.625-13.226563 48.535157-42.210938 48.535157-75.765625 0-53.644531-50.078126-93.34375-102.21875-81.308594-4.046876.929687-6.574219 4.957031-5.640626 9.007813.933594 4.035156 4.96875 6.5625 9.007813 5.628906 42.984375-9.867188 83.824219 22.878906 83.824219 66.671875 0 27.78125-16.664063 51.757812-40.519532 62.449219-11.152343-16.960938-28.726562-28.957032-48.90625-33.054688-6.632812-22.183594-25.707031-36.839844-46.488281-40.347656 2.894531-17.773438 12.761719-33.945313 27.601563-44.617188 3.367187-2.425781 4.136718-7.125 1.714844-10.488281-2.425782-3.367187-7.125-4.140625-10.492188-1.714844-18.617188 13.394531-30.820312 33.875-33.945312 56.28125-6.683594.628907-13.246094 2.433594-19.40625 5.359375-9.027344-32.914062-39.199219-56.5625-74.265626-56.5625-32.90625 0-61.8125 20.753906-72.589843 51.25-34.507813-4.113281-62.261719 27.097656-55.910157 60.039063h-28.855468c-15.582032 0-28.246094 12.675781-28.246094 28.246093 0 15.578126 12.664062 28.253907 28.246094 28.253907h148.949218c-4.109374 6.203125-6.945312 13.15625-8.375 20.558593-28.65625-1.871093-55.851562 15.25-66.082031 42.902344-30.152343-3.058594-55 26.148438-46.597656 55.671875-20.675781 12.964844-11.414063 44.925781 12.882813 44.925781h15.632812c4.148438 0 7.511719-3.367187 7.511719-7.515624 0-4.148438-3.363281-7.515626-7.511719-7.515626h-15.632812c-5.117188 0-9.289063-4.15625-9.289063-9.277343 0-4.425781 3.148437-8.253907 7.464844-9.105469 4.828125-.949219 7.460937-6.238281 5.300781-10.660156-10.824219-22.257813 9.597656-47.015625 33.507812-40.691406 4.003907 1.074218 8.164063-1.328126 9.214844-5.410157 7.644532-30.175781 39.960938-45.929687 68.035156-34.90625 16.957032 6.652344 29.679688 22.171875 32 41.207031.6875 5.722657 7.316407 8.558594 11.945313 5.121094 22.453125-16.730468 56.4375-1.691406 56.4375 28.375 0 23.324219-21.722656 35.347656-30.988281 35.347656h-137.9375c-4.148438 0-7.515625 3.367188-7.515625 7.515626 0 4.148437 3.367187 7.515624 7.515625 7.515624h137.9375c18.765625 0 46.019531-19.628906 46.019531-50.378906 0-8.253906-1.914063-16.128906-5.53125-23.132812h143.199219c4.15625 0 7.511718-3.367188 7.511718-7.515625 0-4.160157-3.355468-7.515625-7.511718-7.515625h-155.171875c-14.367188-12.199219-35.085938-16.027344-53.246094-7.953125-6.371094-21.414063-23.242187-38.046875-44.355469-44.367188 1.875-9.601562 6.734375-17.433593 13.214844-23.195312h93.351562c26.347657 0 54.855469-28.824219 53.234376-59.585938 20.503906 6.152344 36.71875 22.613281 42.191406 44.074219 1.03125 4.078125 5.21875 6.488281 9.210937 5.410156 29.472657-7.714844 53.679688 22.0625 42.171875 48.6875-2.144531 4.96875 1.515625 10.488282 6.902344 10.488282h38.996094c7.292968 0 13.214844 5.933593 13.214844 13.214843 0 7.296875-5.921876 13.226563-13.214844 13.226563h-16.441406c-4.148438 0-7.515626 3.355468-7.515626 7.515625 0 4.148437 3.367188 7.515625 7.515626 7.515625h16.441406c15.578125 0 28.246094-12.675782 28.246094-28.257813 0-15.570312-12.667969-28.242187-28.246094-28.242187zm-156.113282-80.496094c-5.386718 18.679688-24.265624 31.417969-36.59375 31.417969-11.625 0-248.171874 0-261.886718 0-7.296875 0-13.21875-5.929688-13.21875-13.222657 0-7.285156 5.921875-13.21875 13.21875-13.21875h38.996094c5.40625 0 9.03125-5.542968 6.902343-10.488281-5.421875-12.574219-3.144531-26.941406 5.953125-37.492187 9.125-10.59375 22.671875-14.78125 36.21875-11.195313 4.039063 1.089844 8.191406-1.378906 9.207032-5.410156 6.972656-27.492187 31.671874-46.699219 60.078124-46.699219 31.28125 0 57.722657 23.375 61.519532 54.367188.683594 5.699218 7.300781 8.566406 11.941406 5.117187 32.414062-24.15625 79.230469 6.113281 67.664062 46.824219zm0 0"/><path d="m361.898438 49.542969c4.148437 0 7.511718-3.367188 7.511718-7.515625v-34.511719c0-4.152344-3.363281-7.515625-7.511718-7.515625-4.152344 0-7.515626 3.363281-7.515626 7.515625v34.511719c0 4.148437 3.363282 7.515625 7.515626 7.515625zm0 0"/><path d="m301.351562 60.261719c1.390626 2.414062 3.917969 3.761719 6.515626 3.761719 5.714843 0 9.410156-6.238282 6.5-11.273438l-17.257813-29.890625c-2.074219-3.59375-6.671875-4.824219-10.265625-2.75s-4.824219 6.671875-2.75 10.265625zm0 0"/><path d="m234.65625 85.316406 29.886719 17.257813c3.578125 2.066406 8.179687.855469 10.265625-2.753907 2.074218-3.59375.84375-8.1875-2.75-10.261718l-29.890625-17.257813c-3.59375-2.074219-8.191407-.84375-10.265625 2.75-2.074219 3.59375-.84375 8.191407 2.753906 10.265625zm0 0"/><path d="m451.738281 210.648438 29.886719 17.257812c3.578125 2.066406 8.179688.855469 10.265625-2.75 2.074219-3.59375.84375-8.191406-2.75-10.265625l-29.890625-17.257813c-3.59375-2.074218-8.1875-.84375-10.261719 2.753907-2.078125 3.59375-.84375 8.1875 2.75 10.261719zm0 0"/><path d="m462.460938 150.101562c0 4.152344 3.363281 7.515626 7.511718 7.515626h34.511719c4.152344 0 7.515625-3.363282 7.515625-7.515626 0-4.148437-3.363281-7.511718-7.515625-7.511718h-34.511719c-4.148437 0-7.511718 3.363281-7.511718 7.511718zm0 0"/><path d="m455.5 103.582031c3.566406 0 2.761719-.839843 33.640625-18.265625 3.59375-2.074218 4.824219-6.671875 2.75-10.265625s-6.671875-4.828125-10.265625-2.75l-29.886719 17.253907c-6.640625 3.835937-3.902343 14.027343 3.761719 14.027343zm0 0"/><path d="m415.929688 64.023438c2.59375 0 5.121093-1.347657 6.511718-3.761719l17.257813-29.886719c2.074219-3.59375.84375-8.191406-2.75-10.265625s-8.191407-.84375-10.265625 2.75l-17.257813 29.890625c-2.90625 5.03125.777344 11.273438 6.503907 11.273438zm0 0"/></svg>