<svg height="512" viewBox="0 0 64 64" width="512" xmlns="http://www.w3.org/2000/svg"><g id="school-college-flag-student-boy"><rect fill="#ffc477" height="26" rx="9" width="20" x="6" y="4"/><path d="m59 24.29v16.71h-14v-20z" fill="#ff7956"/><path d="m59 24.29v16.71h-4v-16.71l-10-2.35v-.94z" fill="#ff5023"/><path d="m45 41 12 20h-32v-7h4v-13z" fill="#c6c5ca"/><path d="m57 61h-4l-12-20h4z" fill="#898890"/><path d="m49 29h6v6h-6z" fill="#46f8ff"/><path d="m52 29h3v6h-3z" fill="#00d7df"/><path d="m45 14.86v26.14h-16v-6l-4-1.2v-8.69a8.884 8.884 0 0 0 1-4.11v-6.43l9-2.57z" fill="#a78966"/><path d="m42 4v2a1 1 0 0 1 -1 1h-6v-4h6a1 1 0 0 1 1 1z" fill="#ff3051"/><path d="m41 25v8h-4v-8a2.006 2.006 0 0 1 2-2 2.015 2.015 0 0 1 2 2z" fill="#ebe5dd"/><circle cx="35" cy="18" fill="#ff3051" r="2"/><path d="m33 25v8h-4v-8a2.006 2.006 0 0 1 2-2 2.015 2.015 0 0 1 2 2z" fill="#ebe5dd"/><path d="m29 35v19h-4v-20.2z" fill="#e0e0e2"/><path d="m29 35v19h-2v-19l-2-.6v-.6z" fill="#c6c5ca"/><path d="m7 54h18v8h-18z" fill="#a78966"/><path d="m21 54h4v8h-4z" fill="#6a563d"/><path d="m21 32h4v22h-4z" fill="#806749"/><path d="m23 32h2v22h-2z" fill="#5f4d37"/><path d="m25 25.11v6.89h-4v.6l-2-.6v-2.22a9.009 9.009 0 0 0 6-4.67z" fill="#ff7956"/><path d="m17 4a9 9 0 0 1 9 9 14.651 14.651 0 0 1 -13 6v-5c-2 3-7 3-7 3v-4a9 9 0 0 1 9-9z" fill="#ffd422"/><path d="m26 13v8a9 9 0 0 1 -9 9h-2a8.262 8.262 0 0 1 -1-.06 8.993 8.993 0 0 0 8-8.94v-8a8.993 8.993 0 0 0 -8-8.94 8.262 8.262 0 0 1 1-.06h2a9 9 0 0 1 9 9z" fill="#ffa733"/><path d="m26 13a14.088 14.088 0 0 1 -4 3.8v-3.8a8.993 8.993 0 0 0 -8-8.94 8.262 8.262 0 0 1 1-.06h2a9 9 0 0 1 9 9z" fill="#ebbf00"/><path d="m11 50h10v4h-10z" fill="#e0e0e2"/><path d="m11 46h10v4h-10z" fill="#ff3051"/><path d="m11 41h10v5h-10z" fill="#e0e0e2"/><path d="m11 37h10v4h-10z" fill="#ff3051"/><path d="m21 32.6v4.4h-10v-4.4l2-.6v-2.22a9.356 9.356 0 0 0 2 .22h2a9.356 9.356 0 0 0 2-.22v2.22z" fill="#ffc477"/><path d="m7 32h4v22h-4z" fill="#806749"/><path d="m7 33.8v20.2h-4v-19z" fill="#e0e0e2"/><path d="m9 32h2v22h-2z" fill="#5f4d37"/><path d="m45 14.86v26.14h-4v-26.14l-8-2.29 2-.57z" fill="#806749"/><path d="m42 4v2a1 1 0 0 1 -1 1h-4a1 1 0 0 0 1-1v-2a1 1 0 0 0 -1-1h4a1 1 0 0 1 1 1z" fill="#cd2a00"/><path d="m41 25v8h-2v-8a1.955 1.955 0 0 0 -.59-1.41 1.813 1.813 0 0 0 -.41-.32 2 2 0 0 1 1-.27 2.015 2.015 0 0 1 2 2z" fill="#898890"/><path d="m37 18a2 2 0 0 1 -3 1.73 2 2 0 0 0 0-3.46 2 2 0 0 1 3 1.73z" fill="#cd2a00"/><path d="m33 25v8h-2v-8a1.955 1.955 0 0 0 -.59-1.41 1.813 1.813 0 0 0 -.41-.32 2 2 0 0 1 1-.27 2.015 2.015 0 0 1 2 2z" fill="#898890"/><path d="m38 18a3 3 0 1 0 -3 3 3 3 0 0 0 3-3zm-4 0a1 1 0 1 1 1 1 1 1 0 0 1 -1-1z"/><path d="m49 36h6a1 1 0 0 0 1-1v-6a1 1 0 0 0 -1-1h-6a1 1 0 0 0 -1 1v6a1 1 0 0 0 1 1zm1-6h4v4h-4z"/><path d="m46 20.21v-4.03l2.73.78.54-1.92-13.27-3.79v-3.25h5a2.006 2.006 0 0 0 2-2v-2a2.006 2.006 0 0 0 -2-2h-6a1 1 0 0 0 -1 1v8.25l-7 1.99v-.24a10.016 10.016 0 0 0 -10-10h-2a10.016 10.016 0 0 0 -10 10v8a10.023 10.023 0 0 0 7 9.54v.72l-.26.08a.994.994 0 0 0 -.74-.34h-4a1 1 0 0 0 -1 1v1.06l-3.29.98a1.008 1.008 0 0 0 -.71.96v19a1 1 0 0 0 1 1h3v7h2v-7h16v7h2v-7h3a1 1 0 0 0 1-1v-12h14.43l11.71 19.51 1.72-1.02-11.09-18.49h12.23a1 1 0 0 0 1-1v-15.44l1.77.41.46-1.94zm-10-16.21h5v2h-5zm-30 49h-2v-17.26l2-.6zm4 0h-2v-20h2zm-3-40a8.011 8.011 0 0 1 8-8h2a8 8 0 0 1 7.98 7.68 13.5 13.5 0 0 1 -10.98 5.38v-4.06a1.008 1.008 0 0 0 -.71-.96.992.992 0 0 0 -1.12.41c-1.19 1.77-3.75 2.31-5.17 2.48zm13 40h-8v-2h8zm0-4h-8v-2h8zm0-4h-8v-3h8zm0-5h-8v-2h8zm0-4h-8v-2.66l1.29-.38a1.008 1.008 0 0 0 .71-.96v-1.05c.33.03.66.05 1 .05h2c.34 0 .67-.02 1-.05v1.05a1.008 1.008 0 0 0 .71.96l1.29.38zm4 17h-2v-20h2zm0-22h-3a.994.994 0 0 0 -.74.34l-.26-.08v-.72a10.04 10.04 0 0 0 4-2.41zm1-10a8.011 8.011 0 0 1 -8 8h-2a8.011 8.011 0 0 1 -8-8v-3.06a11.526 11.526 0 0 0 5-1.61v2.67a1 1 0 0 0 .88.99 10.431 10.431 0 0 0 1.23.06 15.631 15.631 0 0 0 10.89-4.35zm3 32h-2v-17.86l2 .6zm16-13h-14v-5a1.008 1.008 0 0 0 -.71-.96l-.14-.04h3.85a1 1 0 0 0 1-1v-8a3 3 0 0 0 -6 0v8a.975.975 0 0 0 .39.77l-2.39-.71v-7.73a9.98 9.98 0 0 0 1-4.33v-5.68l8-2.28 9 2.57zm-14-8v-7a1 1 0 0 1 2 0v7zm28 8h-12v-17.74l12 2.83z"/><path d="m39 22a3.009 3.009 0 0 0 -3 3v8a1 1 0 0 0 1 1h4a1 1 0 0 0 1-1v-8a3.009 3.009 0 0 0 -3-3zm1 10h-2v-7a1 1 0 0 1 2 0z"/><path d="m15 58h2v4h-2z"/></g></svg>